<svg viewBox="0 0 64 64" xmlns="http://www.w3.org/2000/svg" id="Crescent-Moon--Streamline-Emoji" height="64" width="64">
  <desc>
    Crescent Moon Streamline Emoji: https://streamlinehq.com
  </desc>
  <path d="M14.893333333333333 60.666666666666664a19.333333333333332 2 0 1 0 38.666666666666664 0 19.333333333333332 2 0 1 0 -38.666666666666664 0Z" fill="#45413c" opacity=".15" stroke-width="1"></path>
  <path d="M37.733333333333334 6.2A20.56 20.56 0 1 1 8.853333333333332 35.093333333333334a0.8266666666666667 0.8266666666666667 0 0 0 -1.4666666666666668 0.6933333333333334A25.119999999999997 25.119999999999997 0 1 0 38.44 4.7333333333333325a0.8266666666666667 0.8266666666666667 0 0 0 -0.7066666666666667 1.4666666666666668Z" fill="#ffe500" stroke-width="1"></path>
  <path d="M54.73333333333333 19.24a25.64 25.64 0 0 1 0 7.1466666666666665 25.119999999999997 25.119999999999997 0 0 1 -46.93333333333334 8.466666666666665 0.7733333333333332 0.7733333333333332 0 0 0 -0.41333333333333333 0.9333333333333332 25.119999999999997 25.119999999999997 0 1 0 47.346666666666664 -16.546666666666667Z" fill="#ebcb00" stroke-width="1"></path>
  <path d="M37.733333333333334 6.2A20.56 20.56 0 1 1 8.853333333333332 35.093333333333334a0.8266666666666667 0.8266666666666667 0 0 0 -1.4666666666666668 0.6933333333333334A25.119999999999997 25.119999999999997 0 1 0 38.44 4.7333333333333325a0.8266666666666667 0.8266666666666667 0 0 0 -0.7066666666666667 1.4666666666666668Z" fill="none" stroke="#45413c" stroke-linecap="round" stroke-linejoin="round" stroke-width="1"></path>
</svg>